{"title":"Love Child S03E06 1080P WEB-DL AAC2 0 H 264","uid":15459833,"size":1672361897,"categoryP":"video","categoryS":"hd___tv_shows","magnet":"?xt=urn:btih:8d308f137bd10991e31b9b8f92a13d2469ce62a8&amp;dn=Love+Child+S03E06+1080P+WEB-DL+AAC2+0+H+264&amp;tr=udp%3A%2F%2Ftracker.leechers-paradise.org%3A6969&amp;tr=udp%3A%2F%2Fzer0day.ch%3A1337&amp;tr=udp%3A%2F%2Fopen.demonii.com%3A1337&amp;tr=udp%3A%2F%2Ftracker.coppersurfer.tk%3A6969&amp;tr=udp%3A%2F%2Fexodus.desync.com%3A6969","seeders":1,"leechers":0,"uploader":"jmanwf","files":1,"time":1470032040,"description":"While Viv (Sophie Hensser) is forced to leave her orphaned nephew behind in Vietnam, Joan (Jessica)\r\n\r\nVideo\r\nID                                       : 2\r\nFormat                                   : AVC\r\nFormat/Info                              : Advanced Video Codec\r\nFormat profile                           :   \r\nFormat settings, CABAC                   : Yes\r\nFormat settings, ReFrames                : 4 frames\r\nCodec ID                                 : avc1\r\nCodec ID/Info                            : Advanced Video Coding\r\nDuration                                 : 43mn 16s\r\nBit rate                                 : 5 021 Kbps\r\nWidth                                    : 1 912 pixels\r\nHeight                                   : 1 072 pixels\r\nDisplay aspect ratio                     : 16:9\r\nFrame rate mode                          : Variable\r\nFrame rate                               : 25.000 fps\r\nMinimum frame rate                       : 25.000 fps\r\nMaximum frame rate                       : 200.000 fps\r\nColor space                              : YUV\r\nChroma subsampling                       : 4:2:0\r\nBit depth                                : 8 bits\r\nScan type                                : Progressive\r\nBits/(Pixel*Frame)                       : 0.098\r\nStream size                              : 1.52 GiB (97%)\r\nLanguage                                 : English\r\nEncoded date                             : UTC 2016-07-31 13:02:03\r\nTagged date                              : UTC 2016-07-31 13:03:24\r\nColor range                              : Limited\r\nColor primaries                          : BT.709\r\nTransfer characteristics                 : BT.709\r\nMatrix coefficients                      : BT.709\r\n\r\nAudio\r\nID                                       : 1\r\nFormat                                   : AAC\r\nFormat/Info                              : Advanced Audio Codec\r\nFormat profile                           : LC\r\nCodec ID                                 : 40\r\nDuration                                 : 43mn 16s\r\nDuration_LastFrame                       : -2ms\r\nBit rate mode                            : Variable\r\nBit rate                                 : 126 Kbps\r\nMaximum bit rate                         : 173 Kbps\r\nChannel(s)                               : 2 channels\r\nChannel positions                        : Front: L R\r\nSampling rate                            : 48.0 KHz\r\nFrame rate                               : 46.875 fps (1024 spf)\r\nCompression mode                         : Lossy\r\nStream size                              : 39.2 MiB (2%)\r\nLanguage                                 : English\r\nDefault                                  : Yes\r\nAlternate group                          : 1\r\nEncoded date                             : UTC 2016-07-31 12:59:43\r\nTagged date                              : UTC 2016-07-31 13:02:03","torrent":{"xt":"urn:btih:8d308f137bd10991e31b9b8f92a13d2469ce62a8","amp;dn":"Love+Child+S03E06+1080P+WEB-DL+AAC2+0+H+264","amp;tr":["udp%3A%2F%2Ftracker.leechers-paradise.org%3A6969","udp%3A%2F%2Fzer0day.ch%3A1337","udp%3A%2F%2Fopen.demonii.com%3A1337","udp%3A%2F%2Ftracker.coppersurfer.tk%3A6969","udp%3A%2F%2Fexodus.desync.com%3A6969"],"infoHash":"8d308f137bd10991e31b9b8f92a13d2469ce62a8","infoHashBuffer":{"type":"Buffer","data":[141,48,143,19,123,209,9,145,227,27,155,143,146,161,61,36,105,206,98,168]},"announce":[],"urlList":[]}}